<svg xmlns="http://www.w3.org/2000/svg"  viewBox="0 0 64 64" width="128px" height="128px"><radialGradient id="XKO5rynEUL2RNsjqZNRLfa" cx="32" cy="34.5" r="51.925" gradientTransform="matrix(1 0 0 -1 0 66)" gradientUnits="userSpaceOnUse"><stop offset="0" stop-color="#9ceeff"/><stop offset=".642" stop-color="#c5f5ff"/><stop offset="1" stop-color="#dcf9ff"/></radialGradient><path fill="url(#XKO5rynEUL2RNsjqZNRLfa)" d="M60.5,30c1.995,0,3.6-1.669,3.495-3.688C63.896,24.419,62.197,23,60.302,23H59.5	c-0.828,0-1.5-0.671-1.5-1.5s0.672-1.5,1.5-1.5h0.802c1.895,0,3.594-1.419,3.693-3.312C64.1,14.669,62.495,13,60.5,13h-1.393	c-0.996,0-1.92-0.681-2.08-1.664C56.823,10.083,57.785,9,59,9h0.302c1.895,0,3.594-1.419,3.693-3.312C63.101,3.669,61.495,2,59.5,2	H4.698C2.803,2,1.104,3.419,1.005,5.312C0.899,7.331,2.505,9,4.5,9h0.393c0.996,0,1.92,0.681,2.08,1.664C7.177,11.917,6.215,13,5,13	H3.698c-1.895,0-3.594,1.419-3.693,3.312C-0.101,18.331,1.505,20,3.5,20C4.328,20,5,20.671,5,21.5S4.328,23,3.5,23h0.198	c-1.895,0-3.594,1.419-3.693,3.312C-0.101,28.331,1.505,30,3.5,30l0,0C4.328,30,5,30.672,5,31.5l0,0C5,32.328,4.328,33,3.5,33l0,0	c-1.995,0-3.6,1.669-3.495,3.688C0.104,38.581,1.803,40,3.698,40H4.5C5.328,40,6,40.671,6,41.5C6,42.328,5.328,43,4.5,43H3.698	c-1.895,0-3.594,1.419-3.693,3.312C-0.101,48.331,1.505,50,3.5,50h1.393c0.996,0,1.92,0.681,2.08,1.664C7.176,52.917,6.215,54,5,54	H4.698c-1.895,0-3.594,1.419-3.693,3.312C0.899,59.331,2.505,61,4.5,61h54.802c1.895,0,3.594-1.419,3.693-3.312	C63.1,55.669,61.495,54,59.5,54H59c-1.105,0-2-0.896-2-2l0,0c0-1.104,0.895-2,2-2h1.302c1.895,0,3.594-1.419,3.693-3.312	C64.1,44.669,62.495,43,60.5,43c-0.828,0-1.5-0.672-1.5-1.5l0,0c0-0.829,0.672-1.5,1.5-1.5h-0.198c1.895,0,3.594-1.419,3.693-3.312	C64.101,34.669,62.495,33,60.5,33l0,0c-0.828,0-1.5-0.672-1.5-1.5l0,0C59,30.672,59.672,30,60.5,30L60.5,30z"/><linearGradient id="XKO5rynEUL2RNsjqZNRLfb" x1="32" x2="32" y1="5.106" y2="60.318" gradientTransform="matrix(1 0 0 -1 0 66)" gradientUnits="userSpaceOnUse"><stop offset="0" stop-color="#dbdee1"/><stop offset=".085" stop-color="#dee1e4"/><stop offset=".606" stop-color="#eff1f2"/><stop offset="1" stop-color="#f5f6f7"/></linearGradient><path fill="url(#XKO5rynEUL2RNsjqZNRLfb)" d="M18,8h28c5.523,0,10,4.477,10,10v28c0,5.523-4.477,10-10,10H18c-5.523,0-10-4.477-10-10V18	C8,12.477,12.477,8,18,8z"/><linearGradient id="XKO5rynEUL2RNsjqZNRLfc" x1="17" x2="45" y1="34" y2="34" gradientTransform="matrix(1 0 0 -1 0 66)" gradientUnits="userSpaceOnUse"><stop offset=".096" stop-color="#5e6d7b"/><stop offset=".577" stop-color="#5c6b79"/><stop offset=".993" stop-color="#515c69"/></linearGradient><path fill="url(#XKO5rynEUL2RNsjqZNRLfc)" d="M45,24v-4h-2v-2H33v2h-2v3v1v2h-2v2h-2v2h-2v2h-4v-2h-2v-2h-2v6v2h2v2h2v2h2v2v2v2h2h2v-2h-2	v-2h2v-2h2v2h2v2v2h2h2v-2h-2v-2v-2h2v-4h2v-2v-2h2v2h2v-2v-1v-1h-4v-1v-1h7v-2h-4v-2H45z M37,21.6h-2V20h2V21.6z"/><linearGradient id="XKO5rynEUL2RNsjqZNRLfd" x1="17.499" x2="17.499" y1="82.348" y2="20.09" gradientTransform="matrix(1 0 0 -1 0 66)" gradientUnits="userSpaceOnUse"><stop offset="0" stop-color="#fff"/><stop offset="1" stop-color="#f5f6f7"/></linearGradient><path fill="url(#XKO5rynEUL2RNsjqZNRLfd)" d="M24,14h-6.5c-0.83,0-1.5,0.67-1.5,1.5s0.67,1.5,1.5,1.5h2c1.47,0,2.64,1.26,2.49,2.76	c-0.13,1.3-1.32,2.24-2.63,2.24H8v-4c0-5.52,4.48-10,10-10h5.89c1.45,0,2.78,0.98,3.05,2.41C27.31,12.32,25.85,14,24,14z"/><linearGradient id="XKO5rynEUL2RNsjqZNRLfe" x1="45.998" x2="45.998" y1="18.811" y2="82.046" gradientTransform="matrix(1 0 0 -1 0 66)" gradientUnits="userSpaceOnUse"><stop offset="0" stop-color="#dbdee1"/><stop offset=".085" stop-color="#dee1e4"/><stop offset=".606" stop-color="#eff1f2"/><stop offset="1" stop-color="#f5f6f7"/></linearGradient><path fill="url(#XKO5rynEUL2RNsjqZNRLfe)" d="M56,37v9c0,5.52-4.48,10-10,10h-7.5c-1.47,0-2.64-1.26-2.49-2.76	c0.13-1.3,1.32-2.24,2.63-2.24H45c0.55,0,1.05-0.22,1.41-0.59C46.78,50.05,47,49.55,47,49s-0.22-1.05-0.59-1.41	C46.05,47.22,45.55,47,45,47c-1.21,0-2.18-1.08-1.97-2.34c0.16-0.98,1.08-1.66,2.08-1.66h4.39c0.83,0,1.5-0.67,1.5-1.5	S50.33,40,49.5,40h-1c-0.83,0-1.5-0.67-1.5-1.5s0.67-1.5,1.5-1.5H56z"/></svg>